# Blender 3.3.0
# www.blender.org
mtllib Rocks.mtl
o Rocks
v -0.124514 -0.170823 -0.540508
v -0.124514 -0.202535 -0.319971
v -0.071762 0.042205 -0.456580
v -0.071762 0.025510 -0.340474
v 0.098291 -0.170823 -0.540508
v 0.098291 -0.202535 -0.319971
v 0.045539 0.016382 -0.456580
v 0.045539 0.025510 -0.340474
v -0.124514 -0.109980 -0.531759
v -0.124514 -0.141693 -0.311222
v 0.098291 -0.109980 -0.531759
v 0.098291 -0.141693 -0.311222
v -0.112701 -0.033385 -0.307583
v 0.086477 -0.005035 -0.504733
v -0.161152 -0.044727 -0.550954
v 0.086477 -0.033385 -0.307583
v -0.071762 0.042205 -0.456580
v -0.071762 0.025510 -0.340474
v 0.045539 0.016382 -0.456580
v 0.045539 0.025510 -0.340474
v -0.088936 -0.072742 -0.187515
v -0.088936 -0.037206 -0.187515
v 0.039341 -0.072742 -0.114889
v 0.039341 -0.037206 -0.114889
v 0.090973 -0.072742 0.009761
v 0.090973 -0.037206 0.009761
v 0.039341 -0.072742 0.134411
v 0.039341 -0.037206 0.134411
v -0.085309 -0.072742 0.186043
v -0.085309 -0.037206 0.186043
v -0.160972 -0.072742 0.134411
v -0.160972 -0.037206 0.134411
v -0.261591 -0.072742 0.009761
v -0.261591 -0.037206 0.009761
v -0.206331 -0.072742 -0.121017
v -0.206331 -0.037206 -0.121017
v -0.581146 -0.074587 -0.579728
v -0.581146 -0.039050 -0.579728
v -0.350554 -0.074587 -0.585689
v -0.350554 -0.039050 -0.585689
v -0.298922 -0.074587 -0.461038
v -0.298922 -0.039050 -0.461038
v -0.452868 -0.074587 -0.257802
v -0.452868 -0.039050 -0.257802
v -0.577519 -0.074587 -0.245983
v -0.577519 -0.039050 -0.245983
v -0.653182 -0.074587 -0.257802
v -0.653182 -0.039050 -0.257802
v -0.753801 -0.074587 -0.382453
v -0.753801 -0.039050 -0.382453
v -0.698541 -0.074587 -0.513231
v -0.698541 -0.039050 -0.513231
v 0.269793 -0.170823 -0.116364
v 0.269793 -0.202535 0.104173
v 0.322546 0.042205 -0.032436
v 0.322546 0.025510 0.083670
v 0.492598 -0.170823 -0.116364
v 0.492598 -0.202535 0.104173
v 0.439846 0.042205 -0.032436
v 0.439846 0.025510 0.083670
v 0.269793 -0.109980 -0.107615
v 0.269793 -0.141693 0.112922
v 0.492598 -0.109980 -0.107615
v 0.492598 -0.141693 0.112922
v 0.281607 -0.033385 0.116561
v 0.480785 -0.005035 -0.080589
v 0.281607 -0.005035 -0.080589
v 0.480785 -0.033385 0.116561
v 0.322546 0.042205 -0.032436
v 0.322546 0.025510 0.083670
v 0.439846 0.042205 -0.032436
v 0.439846 0.025510 0.083670
v -0.085309 -0.181127 0.698709
v 0.032481 -0.091142 0.784287
v -0.130300 -0.091142 0.837179
v -0.230906 -0.091142 0.698709
v -0.130300 -0.091142 0.560239
v 0.032481 -0.091142 0.613130
v 0.058865 -0.035770 0.879970
v -0.203099 0.054456 0.784287
v -0.203099 0.054456 0.613130
v -0.040318 0.054456 0.560239
v 0.088224 -0.026765 0.700101
v -0.063282 0.057947 0.690781
v -0.671411 -0.121711 0.336480
v -0.553621 -0.073165 0.422058
v -0.716402 -0.073165 0.474950
v -0.854138 -0.073165 0.336480
v -0.716402 -0.073165 0.198010
v -0.553621 -0.073165 0.250901
v -0.527238 -0.043293 0.517741
v -0.704011 0.005383 0.455966
v -0.789201 0.005383 0.250901
v -0.626421 -0.041035 0.156349
v -0.497878 -0.038434 0.337872
v -0.649384 0.007266 0.328552
v 0.645853 -0.209965 -0.649202
v 0.752334 -0.128621 -0.571840
v 0.605182 -0.128621 -0.524027
v 0.514234 -0.128621 -0.649202
v 0.605182 -0.128621 -0.774378
v 0.752334 -0.128621 -0.726564
v 0.706627 -0.068077 -0.483890
v 0.539372 0.002999 -0.571840
v 0.516438 -0.039221 -0.764457
v 0.663590 -0.039221 -0.812270
v 0.777472 0.002999 -0.649202
v 0.645853 0.047129 -0.649202
v 0.733848 -0.072742 0.400518
v 0.766930 0.006499 0.533966
v 0.862126 -0.072742 0.473144
v 0.785552 0.005726 0.567645
v 0.913758 -0.072742 0.597794
v 0.777414 0.003778 0.618761
v 0.862126 -0.072742 0.722444
v 0.742075 0.002135 0.644360
v 0.737476 -0.072742 0.774076
v 0.722092 0.001819 0.641166
v 0.661812 -0.072742 0.722444
v 0.718523 0.002020 0.633206
v 0.561194 -0.072742 0.597794
v 0.708514 0.004493 0.555836
v 0.616453 -0.072742 0.467016
v 0.740489 0.005967 0.533017
v 0.862126 -0.037206 0.473144
v 0.733848 -0.037206 0.400518
v 0.913758 -0.037206 0.597794
v 0.862126 -0.037206 0.722444
v 0.737476 -0.037206 0.774076
v 0.661812 -0.037206 0.722444
v 0.561194 -0.037206 0.597794
v 0.616453 -0.037206 0.467016
v 0.830628 -0.020745 0.501079
v 0.733853 -0.018514 0.446335
v 0.870721 -0.024687 0.597790
v 0.831694 -0.028524 0.691930
v 0.742126 -0.030034 0.729000
v 0.689068 -0.028560 0.692824
v 0.607085 -0.024424 0.591344
v 0.647816 -0.020499 0.495030
v 0.278393 -0.137018 0.473730
v 0.391597 -0.095997 0.406588
v 0.377231 -0.095997 0.560645
v 0.226273 -0.095997 0.594590
v 0.147344 -0.095997 0.461508
v 0.249520 -0.095997 0.345319
v 0.454258 -0.065466 0.483386
v 0.307265 -0.029624 0.602142
v 0.121313 -0.050915 0.546927
v 0.135679 -0.050915 0.392870
v 0.330513 -0.029624 0.352871
v 0.278393 -0.007371 0.473730
v -0.671411 0.019574 -0.731121
v -0.553621 -0.028972 -0.816699
v -0.716402 -0.028972 -0.869591
v -0.854138 -0.028972 -0.731121
v -0.716402 -0.028972 -0.592651
v -0.553621 -0.028972 -0.645542
v -0.527238 -0.058844 -0.912382
v -0.704011 -0.107520 -0.850607
v -0.789201 -0.107520 -0.645542
v -0.626421 -0.061102 -0.550990
v -0.497878 -0.063703 -0.732513
v -0.649384 -0.109404 -0.723193
v 0.211613 -0.072742 -0.942973
v 0.278099 -0.007278 -0.833711
v 0.339891 -0.072742 -0.870348
v 0.305549 0.005176 -0.763922
v 0.391523 -0.072742 -0.745697
v 0.285910 0.007329 -0.695139
v 0.339891 -0.072742 -0.621047
v 0.226138 -0.002408 -0.660615
v 0.215241 -0.072742 -0.569416
v 0.163880 -0.017513 -0.677918
v 0.139578 -0.072742 -0.621047
v 0.151388 -0.024104 -0.719587
v 0.038959 -0.072742 -0.745697
v 0.151227 -0.032402 -0.808250
v 0.094219 -0.072742 -0.876475
v 0.212839 -0.022312 -0.843261
v 0.339891 -0.037206 -0.870348
v 0.211613 -0.037206 -0.942973
v 0.391523 -0.037206 -0.745697
v 0.339891 -0.037206 -0.621047
v 0.215241 -0.037206 -0.569416
v 0.139578 -0.037206 -0.621047
v 0.038959 -0.037206 -0.745697
v 0.094219 -0.037206 -0.876475
vn -0.7640 0.6354 0.1124
vn -0.0000 -0.1423 0.9898
vn 1.0000 -0.0000 -0.0000
vn -0.0000 -0.9898 -0.1423
vn -0.0000 0.1423 -0.9898
vn -0.0000 -0.0336 0.9994
vn 0.0915 0.0717 -0.9932
vn 0.9940 0.1079 0.0155
vn -1.0000 -0.0000 -0.0000
vn 0.7037 0.7092 0.0435
vn 0.0479 0.7872 -0.6148
vn -0.0000 0.4876 0.8731
vn -0.9864 -0.1324 0.0972
vn 0.1094 0.9935 0.0324
vn 0.4927 -0.0000 -0.8702
vn 0.9239 -0.0000 -0.3827
vn 0.9239 -0.0000 0.3827
vn 0.3827 -0.0000 0.9239
vn -0.5637 -0.0000 0.8260
vn -0.7781 -0.0000 0.6281
vn -0.0000 1.0000 -0.0000
vn -0.9211 -0.0000 -0.3892
vn -0.4929 -0.0000 -0.8701
vn -0.0000 -1.0000 -0.0000
vn -0.0258 -0.0000 -0.9997
vn 0.7971 -0.0000 0.6038
vn 0.0944 -0.0000 0.9955
vn -0.1543 -0.0000 0.9880
vn -0.7948 0.6007 0.0864
vn -0.0000 0.2494 -0.9684
vn 0.7948 0.6007 0.0864
vn -0.0000 0.7138 -0.7003
vn -0.9940 0.1079 0.0155
vn -0.0000 0.9898 0.1423
vn 0.1876 -0.7947 0.5774
vn 0.6071 -0.7947 -0.0000
vn -0.4911 -0.7947 0.3568
vn -0.4911 -0.7947 -0.3568
vn 0.1876 -0.7947 -0.5774
vn 0.7560 -0.6546 -0.0000
vn 0.1507 -0.8731 0.4637
vn -0.7946 -0.1876 0.5774
vn -0.7946 -0.1876 -0.5774
vn 0.3035 -0.1876 -0.9342
vn 0.8155 -0.5693 0.1046
vn -0.2727 0.2051 0.9400
vn -0.9822 0.1876 -0.0000
vn -0.3035 0.1876 -0.9342
vn 0.7717 0.1625 -0.6149
vn 0.4787 0.8695 0.1217
vn 0.1975 0.9232 0.3298
vn -0.0250 0.9997 -0.0000
vn -0.0092 0.9996 -0.0284
vn 0.4842 0.8728 0.0618
vn 0.1178 -0.9246 0.3624
vn 0.3810 -0.9246 -0.0000
vn -0.2488 -0.9364 0.2475
vn -0.2488 -0.9364 -0.2475
vn 0.1178 -0.9246 -0.3624
vn 0.5288 -0.8487 -0.0000
vn 0.0891 -0.9575 0.2744
vn -0.6823 0.2717 0.6787
vn -0.6975 -0.1793 -0.6938
vn 0.1329 -0.9027 -0.4091
vn 0.6096 -0.7889 0.0782
vn -0.2523 0.2648 0.9307
vn -0.5966 0.7633 0.2479
vn -0.4612 0.1602 -0.8727
vn 0.8070 0.1408 -0.5735
vn 0.2840 0.9561 0.0722
vn 0.2273 0.9674 0.1118
vn -0.0175 0.9998 0.0073
vn 0.1271 0.9593 -0.2521
vn 0.2941 0.9297 -0.2216
vn 0.9822 -0.1876 -0.0000
vn 0.2029 -0.7541 0.6246
vn -0.6510 -0.5937 -0.4730
vn 0.2644 -0.5176 -0.8137
vn 0.9048 0.0737 0.4194
vn -0.4238 0.1145 0.8985
vn -0.9867 0.1370 0.0874
vn -0.3030 -0.1973 -0.9324
vn 0.7778 0.2014 -0.5953
vn 0.2793 0.8329 0.4778
vn 0.0601 0.8292 0.5557
vn -0.4625 0.8760 -0.1369
vn -0.1545 0.8661 -0.4754
vn 0.2880 0.8589 -0.4235
vn -0.0213 0.9992 0.0347
vn 0.2060 0.9146 -0.3480
vn 0.3217 0.9397 -0.1166
vn 0.2319 0.9662 0.1130
vn 0.0686 0.9808 0.1823
vn -0.1010 0.9812 0.1646
vn -0.1959 0.9647 0.1758
vn -0.3244 0.9382 -0.1209
vn -0.2071 0.9136 -0.3500
vn 0.2460 0.9250 -0.2897
vn 0.3479 0.9368 -0.0379
vn 0.2725 0.9385 0.2122
vn 0.0938 0.9307 0.3537
vn -0.2564 0.8958 0.3629
vn -0.2921 0.9383 0.1849
vn -0.2709 0.9548 -0.1220
vn -0.1318 0.9566 -0.2601
vn 0.3579 -0.9332 0.0334
vn 0.1424 -0.9332 -0.3301
vn 0.0789 -0.9332 0.3507
vn -0.3092 -0.9332 0.1834
vn -0.2700 -0.9332 -0.2374
vn 0.3703 -0.3542 -0.8587
vn 0.4004 -0.9156 0.0373
vn 0.2052 -0.3542 0.9124
vn -0.4853 -0.8256 0.2878
vn -0.4808 -0.7682 -0.4228
vn 0.7376 0.1451 -0.6595
vn 0.6449 0.2228 0.7310
vn -0.3022 0.2646 0.9158
vn -0.9248 -0.3706 -0.0862
vn -0.2256 0.3775 -0.8981
vn 0.3153 0.9482 -0.0386
vn 0.3076 0.9468 0.0949
vn -0.1713 0.9635 0.2055
vn -0.2783 0.9602 -0.0259
vn -0.1545 0.9576 -0.2430
vn 0.1178 0.9246 -0.3624
vn 0.3810 0.9246 -0.0000
vn -0.2488 0.9364 -0.2475
vn -0.2488 0.9364 0.2475
vn 0.1178 0.9246 0.3624
vn 0.5288 0.8487 -0.0000
vn 0.0891 0.9575 -0.2744
vn -0.6823 -0.2717 -0.6787
vn -0.6975 0.1793 0.6938
vn 0.1329 0.9027 0.4091
vn 0.6096 0.7888 -0.0782
vn -0.2523 -0.2648 -0.9307
vn -0.5966 -0.7633 -0.2479
vn -0.4612 -0.1602 0.8727
vn 0.8070 -0.1408 0.5735
vn 0.2840 -0.9561 -0.0722
vn 0.2273 -0.9674 -0.1118
vn -0.0175 -0.9998 -0.0073
vn 0.1271 -0.9593 0.2521
vn 0.2941 -0.9297 0.2216
vn -0.2109 0.9733 -0.0907
vn 0.2386 0.9095 -0.3405
vn 0.4550 0.8864 -0.0851
vn 0.3382 0.8948 0.2914
vn -0.0103 0.9347 0.3554
vn -0.2847 0.9369 0.2028
vn -0.1199 0.9926 0.0180
vn -0.0849 0.9964 0.0008
vn -0.1260 0.9814 -0.1450
vt 0.673136 0.206312
vt 0.673136 0.206312
vt 0.673136 0.206312
vt 0.673136 0.206312
vt 0.673136 0.206312
vt 0.673136 0.206312
vt 0.673136 0.206312
vt 0.673136 0.206312
vt 0.673136 0.206312
vt 0.673136 0.206312
vt 0.673136 0.206312
vt 0.673136 0.206312
vt 0.673136 0.206312
vt 0.673136 0.206312
vt 0.673136 0.206312
vt 0.673136 0.206312
vt 0.673136 0.206312
vt 0.673136 0.206312
vt 0.673136 0.206312
vt 0.673136 0.206312
vt 0.673136 0.206312
vt 0.673136 0.206312
vt 0.673136 0.206312
vt 0.673136 0.206312
vt 0.673136 0.206312
vt 0.673136 0.206312
vt 0.673136 0.206312
vt 0.673136 0.206312
vt 0.673136 0.206312
vt 0.673136 0.206312
vt 0.673136 0.206312
vt 0.673136 0.206312
vt 0.673136 0.206312
vt 0.673136 0.206312
vt 0.673136 0.206312
vt 0.673136 0.206312
vt 0.673136 0.206312
vt 0.673136 0.206312
vt 0.673136 0.206312
vt 0.673136 0.206312
vt 0.673136 0.206312
vt 0.673136 0.206312
vt 0.673136 0.206312
vt 0.673136 0.206312
vt 0.673136 0.206312
vt 0.673136 0.206312
vt 0.673136 0.206312
vt 0.673136 0.206312
vt 0.673136 0.206312
vt 0.673136 0.206312
vt 0.673136 0.206312
vt 0.673136 0.206312
vt 0.673136 0.206312
vt 0.673136 0.206312
vt 0.673136 0.206312
vt 0.673136 0.206312
vt 0.673136 0.206312
vt 0.673136 0.206312
vt 0.673136 0.206312
vt 0.673136 0.206312
vt 0.673136 0.206312
vt 0.673136 0.206312
vt 0.673136 0.206312
vt 0.673136 0.206312
vt 0.673136 0.206312
vt 0.673136 0.206312
vt 0.673136 0.206312
vt 0.673136 0.206312
vt 0.673136 0.206312
vt 0.673136 0.206312
vt 0.673136 0.206312
vt 0.673136 0.206312
vt 0.673136 0.206312
vt 0.673136 0.206312
vt 0.673136 0.206312
vt 0.673136 0.206312
vt 0.673136 0.206312
vt 0.673136 0.206312
vt 0.673136 0.206312
vt 0.673136 0.206312
vt 0.673136 0.206312
vt 0.673136 0.206312
vt 0.673136 0.206312
vt 0.673136 0.206312
vt 0.673136 0.206312
vt 0.673136 0.206312
vt 0.673136 0.206312
vt 0.673136 0.206312
vt 0.673136 0.206312
vt 0.673136 0.206312
vt 0.673136 0.206312
vt 0.673136 0.206312
vt 0.673136 0.206312
vt 0.673136 0.206312
vt 0.673136 0.206312
vt 0.673136 0.206312
vt 0.673136 0.206312
vt 0.673136 0.206312
vt 0.673136 0.206312
vt 0.673136 0.206312
vt 0.673136 0.206312
vt 0.673136 0.206312
vt 0.673136 0.206312
vt 0.673136 0.206312
vt 0.673136 0.206312
vt 0.673136 0.206312
vt 0.673136 0.206312
vt 0.673136 0.206312
vt 0.673136 0.206312
vt 0.673136 0.206312
vt 0.673136 0.206312
vt 0.673136 0.206312
vt 0.673136 0.206312
vt 0.673136 0.206312
vt 0.673136 0.206312
vt 0.673136 0.206312
vt 0.673136 0.206312
vt 0.673136 0.206312
vt 0.673136 0.206312
vt 0.673136 0.206312
vt 0.673136 0.206312
vt 0.673136 0.206312
vt 0.673136 0.206312
vt 0.673136 0.206312
vt 0.673136 0.206312
vt 0.673136 0.206312
vt 0.673136 0.206312
vt 0.673136 0.206312
vt 0.673136 0.206312
vt 0.673136 0.206312
vt 0.673136 0.206312
vt 0.673136 0.206312
vt 0.673136 0.206312
vt 0.673136 0.206312
vt 0.673136 0.206312
vt 0.673136 0.206312
vt 0.673136 0.206312
vt 0.673136 0.206312
vt 0.673136 0.206312
vt 0.673136 0.206312
vt 0.673136 0.206312
vt 0.673136 0.206312
vt 0.673136 0.206312
vt 0.673136 0.206312
vt 0.673136 0.206312
vt 0.673136 0.206312
vt 0.673136 0.206312
vt 0.673136 0.206312
vt 0.673136 0.206312
vt 0.673136 0.206312
vt 0.673136 0.206312
vt 0.673136 0.206312
vt 0.673136 0.206312
vt 0.673136 0.206312
vt 0.673136 0.206312
vt 0.673136 0.206312
vt 0.673136 0.206312
vt 0.673136 0.206312
vt 0.673136 0.206312
vt 0.673136 0.206312
vt 0.673136 0.206312
vt 0.673136 0.206312
vt 0.673136 0.206312
vt 0.673136 0.206312
vt 0.673136 0.206312
vt 0.673136 0.206312
vt 0.673136 0.206312
vt 0.673136 0.206312
vt 0.673136 0.206312
vt 0.673136 0.206312
vt 0.673136 0.206312
vt 0.673136 0.206312
vt 0.673136 0.206312
vt 0.673136 0.206312
vt 0.673136 0.206312
vt 0.673136 0.206312
vt 0.673136 0.206312
vt 0.673136 0.206312
vt 0.673136 0.206312
vt 0.673136 0.206312
vt 0.673136 0.206312
vt 0.673136 0.206312
vt 0.673136 0.206312
vt 0.673136 0.206312
vt 0.673136 0.206312
vt 0.673136 0.206312
vt 0.673136 0.206312
vt 0.673136 0.206312
s 0
usemtl Material.001
f 15/15/1 13/13/1 4/4/1 3/3/1
f 3/3/2 4/4/2 18/18/2 17/17/2
f 11/11/3 12/12/3 6/6/3 5/5/3
f 5/5/4 6/6/4 2/2/4 1/1/4
f 9/9/5 11/11/5 5/5/5 1/1/5
f 12/12/2 10/10/2 2/2/2 6/6/2
f 16/16/6 13/13/6 10/10/6 12/12/6
f 15/15/7 14/14/7 11/11/7 9/9/7
f 14/14/8 16/16/8 12/12/8 11/11/8
f 1/1/9 2/2/9 10/10/9 9/9/9
f 7/7/10 8/8/10 16/16/10 14/14/10
f 3/3/11 7/7/11 14/14/11 15/15/11
f 8/8/12 4/4/12 13/13/12 16/16/12
f 9/9/13 10/10/13 13/13/13 15/15/13
f 17/17/14 18/18/14 20/20/14 19/19/14
f 8/8/2 7/7/2 19/19/2 20/20/2
f 7/7/2 3/3/2 17/17/2 19/19/2
f 4/4/2 8/8/2 20/20/2 18/18/2
f 21/21/15 22/22/15 24/24/15 23/23/15
f 23/23/16 24/24/16 26/26/16 25/25/16
f 25/25/17 26/26/17 28/28/17 27/27/17
f 27/27/18 28/28/18 30/30/18 29/29/18
f 29/29/19 30/30/19 32/32/19 31/31/19
f 31/31/20 32/32/20 34/34/20 33/33/20
f 24/24/21 22/22/21 36/36/21 34/34/21 32/32/21 30/30/21 28/28/21 26/26/21
f 33/33/22 34/34/22 36/36/22 35/35/22
f 35/35/23 36/36/23 22/22/23 21/21/23
f 21/21/24 23/23/24 25/25/24 27/27/24 29/29/24 31/31/24 33/33/24 35/35/24
f 37/37/25 38/38/25 40/40/25 39/39/25
f 39/39/16 40/40/16 42/42/16 41/41/16
f 41/41/26 42/42/26 44/44/26 43/43/26
f 43/43/27 44/44/27 46/46/27 45/45/27
f 45/45/28 46/46/28 48/48/28 47/47/28
f 47/47/20 48/48/20 50/50/20 49/49/20
f 40/40/21 38/38/21 52/52/21 50/50/21 48/48/21 46/46/21 44/44/21 42/42/21
f 49/49/22 50/50/22 52/52/22 51/51/22
f 51/51/23 52/52/23 38/38/23 37/37/23
f 37/37/24 39/39/24 41/41/24 43/43/24 45/45/24 47/47/24 49/49/24 51/51/24
f 67/67/29 65/65/29 56/56/29 55/55/29
f 55/55/2 56/56/2 70/70/2 69/69/2
f 63/63/3 64/64/3 58/58/3 57/57/3
f 57/57/4 58/58/4 54/54/4 53/53/4
f 61/61/5 63/63/5 57/57/5 53/53/5
f 64/64/2 62/62/2 54/54/2 58/58/2
f 68/68/6 65/65/6 62/62/6 64/64/6
f 67/67/30 66/66/30 63/63/30 61/61/30
f 66/66/8 68/68/8 64/64/8 63/63/8
f 53/53/9 54/54/9 62/62/9 61/61/9
f 59/59/31 60/60/31 68/68/31 66/66/31
f 55/55/32 59/59/32 66/66/32 67/67/32
f 60/60/12 56/56/12 65/65/12 68/68/12
f 61/61/33 62/62/33 65/65/33 67/67/33
f 69/69/34 70/70/34 72/72/34 71/71/34
f 60/60/2 59/59/2 71/71/2 72/72/2
f 59/59/2 55/55/2 69/69/2 71/71/2
f 56/56/2 60/60/2 72/72/2 70/70/2
f 73/73/35 74/74/35 75/75/35
f 74/74/36 73/73/36 78/78/36
f 73/73/37 75/75/37 76/76/37
f 73/73/38 76/76/38 77/77/38
f 73/73/39 77/77/39 78/78/39
f 74/74/40 78/78/40 83/83/40
f 75/75/41 74/74/41 79/79/41
f 76/76/42 75/75/42 80/80/42
f 77/77/43 76/76/43 81/81/43
f 78/78/44 77/77/44 82/82/44
f 74/74/45 83/83/45 79/79/45
f 75/75/46 79/79/46 80/80/46
f 76/76/47 80/80/47 81/81/47
f 77/77/48 81/81/48 82/82/48
f 78/78/49 82/82/49 83/83/49
f 79/79/50 83/83/50 84/84/50
f 80/80/51 79/79/51 84/84/51
f 81/81/52 80/80/52 84/84/52
f 82/82/53 81/81/53 84/84/53
f 83/83/54 82/82/54 84/84/54
f 85/85/55 86/86/55 87/87/55
f 86/86/56 85/85/56 90/90/56
f 85/85/57 87/87/57 88/88/57
f 85/85/58 88/88/58 89/89/58
f 85/85/59 89/89/59 90/90/59
f 86/86/60 90/90/60 95/95/60
f 87/87/61 86/86/61 91/91/61
f 88/88/62 87/87/62 92/92/62
f 89/89/63 88/88/63 93/93/63
f 90/90/64 89/89/64 94/94/64
f 86/86/65 95/95/65 91/91/65
f 87/87/66 91/91/66 92/92/66
f 88/88/67 92/92/67 93/93/67
f 89/89/68 93/93/68 94/94/68
f 90/90/69 94/94/69 95/95/69
f 91/91/70 95/95/70 96/96/70
f 92/92/71 91/91/71 96/96/71
f 93/93/72 92/92/72 96/96/72
f 94/94/73 93/93/73 96/96/73
f 95/95/74 94/94/74 96/96/74
f 97/97/35 98/98/35 99/99/35
f 98/98/36 97/97/36 102/102/36
f 97/97/37 99/99/37 100/100/37
f 97/97/38 100/100/38 101/101/38
f 97/97/39 101/101/39 102/102/39
f 98/98/75 102/102/75 107/107/75
f 99/99/76 98/98/76 103/103/76
f 100/100/42 99/99/42 104/104/42
f 101/101/77 100/100/77 105/105/77
f 102/102/78 101/101/78 106/106/78
f 98/98/79 107/107/79 103/103/79
f 99/99/80 103/103/80 104/104/80
f 100/100/81 104/104/81 105/105/81
f 101/101/82 105/105/82 106/106/82
f 102/102/83 106/106/83 107/107/83
f 103/103/84 107/107/84 108/108/84
f 104/104/85 103/103/85 108/108/85
f 105/105/86 104/104/86 108/108/86
f 106/106/87 105/105/87 108/108/87
f 107/107/88 106/106/88 108/108/88
f 109/109/15 126/126/15 125/125/15 111/111/15
f 111/111/16 125/125/16 127/127/16 113/113/16
f 113/113/17 127/127/17 128/128/17 115/115/17
f 115/115/18 128/128/18 129/129/18 117/117/18
f 117/117/19 129/129/19 130/130/19 119/119/19
f 119/119/20 130/130/20 131/131/20 121/121/20
f 112/112/89 110/110/89 124/124/89 122/122/89 120/120/89 118/118/89 116/116/89 114/114/89
f 121/121/22 131/131/22 132/132/22 123/123/22
f 123/123/23 132/132/23 126/126/23 109/109/23
f 109/109/24 111/111/24 113/113/24 115/115/24 117/117/24 119/119/24 121/121/24 123/123/24
f 134/134/90 133/133/90 125/125/90 126/126/90
f 133/133/91 135/135/91 127/127/91 125/125/91
f 135/135/92 136/136/92 128/128/92 127/127/92
f 136/136/93 137/137/93 129/129/93 128/128/93
f 137/137/94 138/138/94 130/130/94 129/129/94
f 138/138/95 139/139/95 131/131/95 130/130/95
f 139/139/96 140/140/96 132/132/96 131/131/96
f 140/140/97 134/134/97 126/126/97 132/132/97
f 110/110/98 112/112/98 133/133/98 134/134/98
f 112/112/99 114/114/99 135/135/99 133/133/99
f 114/114/100 116/116/100 136/136/100 135/135/100
f 116/116/101 118/118/101 137/137/101 136/136/101
f 118/118/102 120/120/102 138/138/102 137/137/102
f 120/120/103 122/122/103 139/139/103 138/138/103
f 122/122/104 124/124/104 140/140/104 139/139/104
f 124/124/105 110/110/105 134/134/105 140/140/105
f 141/141/106 142/142/106 143/143/106
f 142/142/107 141/141/107 146/146/107
f 141/141/108 143/143/108 144/144/108
f 141/141/109 144/144/109 145/145/109
f 141/141/110 145/145/110 146/146/110
f 142/142/111 146/146/111 151/151/111
f 143/143/112 142/142/112 147/147/112
f 144/144/113 143/143/113 148/148/113
f 145/145/114 144/144/114 149/149/114
f 146/146/115 145/145/115 150/150/115
f 142/142/116 151/151/116 147/147/116
f 143/143/117 147/147/117 148/148/117
f 144/144/118 148/148/118 149/149/118
f 145/145/119 149/149/119 150/150/119
f 146/146/120 150/150/120 151/151/120
f 147/147/121 151/151/121 152/152/121
f 148/148/122 147/147/122 152/152/122
f 149/149/123 148/148/123 152/152/123
f 150/150/124 149/149/124 152/152/124
f 151/151/125 150/150/125 152/152/125
f 153/153/126 154/154/126 155/155/126
f 154/154/127 153/153/127 158/158/127
f 153/153/128 155/155/128 156/156/128
f 153/153/129 156/156/129 157/157/129
f 153/153/130 157/157/130 158/158/130
f 154/154/131 158/158/131 163/163/131
f 155/155/132 154/154/132 159/159/132
f 156/156/133 155/155/133 160/160/133
f 157/157/134 156/156/134 161/161/134
f 158/158/135 157/157/135 162/162/135
f 154/154/136 163/163/136 159/159/136
f 155/155/137 159/159/137 160/160/137
f 156/156/138 160/160/138 161/161/138
f 157/157/139 161/161/139 162/162/139
f 158/158/140 162/162/140 163/163/140
f 159/159/141 163/163/141 164/164/141
f 160/160/142 159/159/142 164/164/142
f 161/161/143 160/160/143 164/164/143
f 162/162/144 161/161/144 164/164/144
f 163/163/145 162/162/145 164/164/145
f 165/165/15 182/182/15 181/181/15 167/167/15
f 167/167/16 181/181/16 183/183/16 169/169/16
f 169/169/17 183/183/17 184/184/17 171/171/17
f 171/171/18 184/184/18 185/185/18 173/173/18
f 173/173/19 185/185/19 186/186/19 175/175/19
f 175/175/20 186/186/20 187/187/20 177/177/20
f 168/168/146 166/166/146 180/180/146 178/178/146 176/176/146 174/174/146 172/172/146 170/170/146
f 177/177/22 187/187/22 188/188/22 179/179/22
f 179/179/23 188/188/23 182/182/23 165/165/23
f 165/165/24 167/167/24 169/169/24 171/171/24 173/173/24 175/175/24 177/177/24 179/179/24
f 166/166/147 168/168/147 181/181/147 182/182/147
f 168/168/148 170/170/148 183/183/148 181/181/148
f 170/170/149 172/172/149 184/184/149 183/183/149
f 172/172/150 174/174/150 185/185/150 184/184/150
f 174/174/151 176/176/151 186/186/151 185/185/151
f 176/176/152 178/178/152 187/187/152 186/186/152
f 178/178/153 180/180/153 188/188/153 187/187/153
f 180/180/154 166/166/154 182/182/154 188/188/154
