# Blender 3.3.0
# www.blender.org
mtllib Tree1.mtl
o Cylinder
v 0.000000 -0.564722 -0.109587
v 0.000000 0.564722 -0.109587
v 0.094905 -0.564722 -0.054793
v 0.094905 0.564722 -0.054793
v 0.094905 -0.564722 0.054793
v 0.094905 0.564722 0.054793
v 0.000000 -0.564722 0.109587
v 0.000000 0.564722 0.109587
v -0.094905 -0.564722 0.054793
v -0.094905 0.564722 0.054793
v -0.094905 -0.564722 -0.054793
v -0.094905 0.564722 -0.054793
v 0.000688 0.435132 -0.231033
v 0.236604 0.435132 0.004884
v 0.000688 0.435132 0.240800
v -0.235229 0.435132 0.004884
v 0.000688 0.906965 0.004884
v 0.000688 0.220608 -0.308485
v 0.314057 0.220608 0.004884
v 0.000688 0.220608 0.318253
v -0.312681 0.220608 0.004884
v 0.000688 0.798567 0.004884
v 0.182566 0.434810 0.004884
v 0.000688 0.433388 -0.177706
v 0.000688 0.430559 0.188888
v -0.184603 0.427985 0.004884
v 0.000688 0.010579 -0.378999
v 0.384570 -0.045189 0.004884
v 0.000688 0.006442 0.388766
v -0.383195 -0.024895 0.004884
v 0.000688 0.719881 0.004884
v 0.197907 0.325442 0.004884
v 0.000688 0.323900 -0.193107
v 0.000688 0.320833 0.204408
v -0.200232 0.318041 0.004884
vn 0.5000 -0.0000 -0.8660
vn 1.0000 -0.0000 -0.0000
vn 0.5000 -0.0000 0.8660
vn -0.5000 -0.0000 0.8660
vn -0.0000 1.0000 -0.0000
vn -1.0000 -0.0000 -0.0000
vn -0.5000 -0.0000 -0.8660
vn -0.0000 -1.0000 -0.0000
vn 0.6667 0.3333 -0.6667
vn 0.6667 0.3333 0.6667
vn -0.6667 0.3333 0.6667
vn -0.6667 0.3333 -0.6667
vn 0.6485 0.3984 -0.6487
vn 0.6481 0.3988 0.6488
vn -0.6483 0.3998 0.6479
vn -0.6487 0.3994 -0.6479
vn 0.6768 0.3593 -0.6425
vn 0.6759 0.3576 0.6444
vn -0.0264 -0.9996 -0.0054
vn -0.6675 0.3674 0.6476
vn -0.6685 0.3692 -0.6456
vt 0.180964 0.077480
vt 0.180964 0.077480
vt 0.180964 0.077480
vt 0.180964 0.077480
vt 0.180964 0.077480
vt 0.180964 0.077480
vt 0.180964 0.077480
vt 0.180964 0.077480
vt 0.180964 0.077480
vt 0.180964 0.077480
vt 0.180964 0.077480
vt 0.180964 0.077480
vt 0.402733 0.406138
vt 0.402733 0.406138
vt 0.402733 0.406138
vt 0.402733 0.406138
vt 0.402733 0.406138
vt 0.402733 0.406138
vt 0.402733 0.406138
vt 0.402733 0.406138
vt 0.402733 0.406138
vt 0.402733 0.406138
vt 0.402733 0.406138
vt 0.402733 0.406138
vt 0.402733 0.406138
vt 0.402733 0.406138
vt 0.402733 0.406138
vt 0.402733 0.406138
vt 0.402733 0.406138
vt 0.402733 0.406138
vt 0.402733 0.406138
vt 0.402733 0.406138
vt 0.402733 0.406138
vt 0.402733 0.406138
vt 0.402733 0.406138
s 0
usemtl Material.001
f 1/1/1 2/2/1 4/4/1 3/3/1
f 3/3/2 4/4/2 6/6/2 5/5/2
f 5/5/3 6/6/3 8/8/3 7/7/3
f 7/7/4 8/8/4 10/10/4 9/9/4
f 4/4/5 2/2/5 12/12/5 10/10/5 8/8/5 6/6/5
f 9/9/6 10/10/6 12/12/6 11/11/6
f 11/11/7 12/12/7 2/2/7 1/1/7
f 1/1/8 3/3/8 5/5/8 7/7/8 9/9/8 11/11/8
f 13/13/9 17/17/9 14/14/9
f 14/14/10 17/17/10 15/15/10
f 13/13/8 14/14/8 15/15/8 16/16/8
f 15/15/11 17/17/11 16/16/11
f 16/16/12 17/17/12 13/13/12
f 18/18/13 24/24/13 23/23/13 19/19/13
f 19/19/14 23/23/14 25/25/14 20/20/14
f 18/18/8 19/19/8 20/20/8 21/21/8
f 20/20/15 25/25/15 26/26/15 21/21/15
f 21/21/16 26/26/16 24/24/16 18/18/16
f 26/26/11 25/25/11 22/22/11
f 23/23/9 24/24/9 22/22/9
f 24/24/12 26/26/12 22/22/12
f 25/25/10 23/23/10 22/22/10
f 27/27/17 33/33/17 32/32/17 28/28/17
f 28/28/18 32/32/18 34/34/18 29/29/18
f 27/27/19 28/28/19 29/29/19 30/30/19
f 29/29/20 34/34/20 35/35/20 30/30/20
f 30/30/21 35/35/21 33/33/21 27/27/21
f 35/35/11 34/34/11 31/31/11
f 32/32/9 33/33/9 31/31/9
f 33/33/12 35/35/12 31/31/12
f 34/34/10 32/32/10 31/31/10
