# Blender 3.3.0
# www.blender.org
mtllib Furnacev0.mtl
o Cube
v -0.755257 -0.829188 0.755257
v -0.372985 0.046243 0.755257
v -0.574183 -0.406109 -0.755257
v -0.528750 0.021808 -0.576176
v 0.755257 -0.829188 0.755257
v 0.372985 0.046243 0.755257
v 0.574183 -0.406109 -0.755257
v 0.528750 0.021808 -0.576176
v -0.614166 0.553176 0.614166
v -0.614166 0.553176 -0.614166
v 0.614166 0.553176 -0.614166
v 0.614166 0.553176 0.614166
v -0.312702 0.811628 0.312702
v -0.312702 0.811628 -0.312702
v 0.312702 0.811628 -0.312702
v 0.312702 0.811628 0.312702
v -0.072514 1.048958 0.072514
v -0.072514 1.048958 -0.072514
v 0.072514 1.048958 -0.072514
v 0.072514 1.048958 0.072514
v -0.295108 1.200527 0.295108
v -0.295108 1.200527 -0.295108
v 0.295108 1.200527 -0.295108
v 0.295108 1.200527 0.295108
v -0.193777 1.287412 0.193777
v -0.193777 1.287412 -0.193777
v 0.193777 1.287412 -0.193777
v 0.193777 1.287412 0.193777
v -0.755257 0.312398 -0.755257
v -0.755257 -0.829188 -0.755257
v 0.755257 -0.829188 -0.755257
v 0.755257 0.312398 -0.755257
v -0.372985 -0.299439 0.755257
v -0.755257 -0.565594 -0.755257
v 0.755257 -0.565594 -0.755257
v 0.372985 -0.299439 0.755257
v -0.528750 -0.268366 -0.576176
v 0.528750 -0.268366 -0.576176
v -0.574183 -0.299999 -1.108182
v -0.574183 -0.406109 -1.108182
v 0.574183 -0.406109 -1.108182
v 0.574183 -0.299999 -1.108182
v -0.574183 0.053440 -0.755257
v 0.574183 0.053440 -0.755257
v -0.574183 -0.299999 -0.755257
v 0.574183 -0.299999 -0.755257
v -0.755257 -0.565594 0.755257
v -0.755257 0.312398 0.755257
v 0.755257 0.312398 0.755257
v 0.755257 -0.565594 0.755257
v -0.121587 1.213384 0.121587
v -0.121587 1.213384 -0.121587
v 0.121587 1.213384 -0.121587
v 0.121587 1.213384 0.121587
v -0.551190 -0.395581 0.972879
v -0.551190 -0.296385 0.972879
v -0.551190 -0.395581 0.379434
v -0.551190 -0.296385 0.379434
v 0.510182 -0.395581 0.972879
v 0.510182 -0.296385 0.972879
v 0.510182 -0.395581 0.379434
v 0.510182 -0.296385 0.379434
v 0.516086 -0.310248 0.729609
v 0.501639 -0.312087 0.682436
v 0.462168 -0.313433 0.647904
v 0.408250 -0.313925 0.635264
v 0.354332 -0.313433 0.647904
v 0.314862 -0.312087 0.682436
v 0.300415 -0.310248 0.729609
v 0.314862 -0.308409 0.776781
v 0.354332 -0.307063 0.811314
v 0.408250 -0.306570 0.823954
v 0.462168 -0.307063 0.811314
v 0.501639 -0.308409 0.776781
v -0.562271 -0.310248 0.729609
v -0.547824 -0.312087 0.682436
v -0.508353 -0.313433 0.647904
v -0.454435 -0.313926 0.635264
v -0.400518 -0.313433 0.647904
v -0.361047 -0.312087 0.682436
v -0.346600 -0.310248 0.729609
v -0.361047 -0.308409 0.776781
v -0.400518 -0.307063 0.811314
v -0.454435 -0.306570 0.823954
v -0.508353 -0.307063 0.811314
v -0.547824 -0.308409 0.776781
v -0.490035 -0.026225 0.721974
v -0.477523 -0.035674 0.675006
v -0.443341 -0.057812 0.641032
v -0.396647 -0.086707 0.629156
v -0.349952 -0.114617 0.642559
v -0.315770 -0.134063 0.677651
v -0.303258 -0.139834 0.725028
v -0.315770 -0.130385 0.771996
v -0.349952 -0.108247 0.805970
v -0.396647 -0.079352 0.817846
v -0.443341 -0.051442 0.804443
v -0.477523 -0.031997 0.769351
v -0.292682 0.181694 0.716384
v -0.285458 0.166674 0.669566
v -0.265723 0.129315 0.636002
v -0.238764 0.079628 0.624684
v -0.211805 0.030927 0.638647
v -0.192070 -0.003740 0.674147
v -0.184846 -0.015083 0.721674
v -0.192070 -0.000062 0.768492
v -0.211805 0.037297 0.802057
v -0.238764 0.086984 0.813375
v -0.265723 0.135685 0.799412
v -0.285458 0.170352 0.763911
v -0.023093 0.257798 0.714339
v -0.023093 0.240738 0.667575
v -0.023093 0.197808 0.634160
v -0.023093 0.140511 0.623048
v -0.023093 0.084199 0.637215
v -0.023093 0.043962 0.672865
v -0.023093 0.030580 0.720447
v -0.023093 0.047639 0.767210
v -0.023093 0.090569 0.800625
v -0.023093 0.147866 0.811738
v -0.023093 0.204178 0.797571
v -0.023093 0.244416 0.761920
v 0.246497 0.181694 0.716384
v 0.239273 0.166674 0.669566
v 0.219538 0.129315 0.636002
v 0.192579 0.079628 0.624684
v 0.165620 0.030927 0.638647
v 0.145885 -0.003740 0.674147
v 0.138661 -0.015083 0.721674
v 0.145885 -0.000062 0.768492
v 0.165620 0.037297 0.802057
v 0.192579 0.086984 0.813375
v 0.219538 0.135685 0.799412
v 0.239273 0.170352 0.763911
v 0.443850 -0.026225 0.721974
v 0.431338 -0.035674 0.675006
v 0.397155 -0.057812 0.641032
v 0.350461 -0.086707 0.629156
v 0.303767 -0.114617 0.642559
v 0.269584 -0.134062 0.677651
v 0.257073 -0.139834 0.725028
v 0.269584 -0.130385 0.771996
v 0.303767 -0.108247 0.805970
v 0.350461 -0.079352 0.817846
v 0.397155 -0.051442 0.804443
v 0.431338 -0.031996 0.769351
vn -1.0000 -0.0000 -0.0000
vn -0.0000 -0.0000 -1.0000
vn 1.0000 -0.0000 -0.0000
vn -0.0000 -0.0000 1.0000
vn -0.0000 -1.0000 -0.0000
vn -0.8628 0.5056 -0.0000
vn -0.0000 0.7592 -0.6509
vn -0.0000 0.5056 0.8628
vn -0.0000 0.5056 -0.8628
vn 0.8628 0.5056 -0.0000
vn 0.9990 0.0452 -0.0000
vn 0.6509 0.7592 -0.0000
vn -0.6509 0.7592 -0.0000
vn -0.0000 0.7592 0.6509
vn -0.0000 1.0000 -0.0000
vn -0.9990 0.0452 -0.0000
vn -0.0000 0.0452 0.9990
vn -0.0000 0.0452 -0.9990
vn -0.6509 0.7591 -0.0000
vn -0.0000 0.7591 -0.6509
vn 0.6509 0.7591 -0.0000
vn -0.0000 0.7591 0.6509
vn 0.7159 0.6982 -0.0000
vn -0.0000 0.6982 0.7159
vn -0.7159 0.6982 -0.0000
vn -0.0000 0.6982 -0.7159
vn -0.0000 -0.9848 -0.1739
vn 0.9693 -0.0000 -0.2459
vn -0.9693 -0.0000 -0.2459
vn -0.0000 0.9848 -0.1739
vn 0.9582 0.2860 -0.0000
vn -0.0000 0.2860 0.9582
vn -0.9582 0.2860 -0.0000
vn -0.0000 0.2860 -0.9582
vn -0.9284 0.2282 -0.2932
vn -0.6487 0.1449 -0.7471
vn -0.2278 0.0318 -0.9732
vn 0.2282 -0.0841 -0.9700
vn 0.6506 -0.1853 -0.7364
vn 0.9299 -0.2439 -0.2753
vn 0.9284 -0.2282 0.2932
vn 0.6487 -0.1449 0.7471
vn 0.2278 -0.0318 0.9732
vn -0.2282 0.0841 0.9700
vn -0.6506 0.1853 0.7364
vn -0.9299 0.2439 0.2753
vn -0.6926 0.6489 -0.3150
vn -0.4783 0.4335 -0.7637
vn -0.1668 0.1321 -0.9771
vn 0.1674 -0.1849 -0.9684
vn 0.4823 -0.4775 -0.7344
vn 0.6958 -0.6675 -0.2651
vn 0.6926 -0.6489 0.3150
vn 0.4783 -0.4335 0.7637
vn 0.1668 -0.1321 0.9771
vn -0.1674 0.1849 0.9684
vn -0.4823 0.4775 0.7344
vn -0.6958 0.6676 0.2651
vn -0.2587 0.9075 -0.3311
vn -0.1766 0.6046 -0.7767
vn -0.0611 0.1900 -0.9799
vn 0.0614 -0.2435 -0.9680
vn 0.1786 -0.6525 -0.7364
vn 0.2604 -0.9294 -0.2614
vn 0.2587 -0.9075 0.3310
vn 0.1766 -0.6046 0.7767
vn 0.0611 -0.1900 0.9799
vn -0.0614 0.2435 0.9680
vn -0.1786 0.6525 0.7364
vn -0.2604 0.9294 0.2614
vn 0.2587 0.9075 -0.3310
vn 0.1766 0.6046 -0.7767
vn 0.0611 0.1900 -0.9799
vn -0.0614 -0.2435 -0.9680
vn -0.1786 -0.6525 -0.7364
vn -0.2604 -0.9294 -0.2614
vn -0.2587 -0.9075 0.3310
vn -0.1766 -0.6046 0.7767
vn -0.0611 -0.1900 0.9799
vn 0.0614 0.2435 0.9680
vn 0.1786 0.6525 0.7364
vn 0.2604 0.9294 0.2614
vn 0.6926 0.6489 -0.3150
vn 0.4783 0.4335 -0.7637
vn 0.1668 0.1321 -0.9771
vn -0.1674 -0.1849 -0.9684
vn -0.4823 -0.4775 -0.7344
vn -0.6958 -0.6676 -0.2651
vn -0.6926 -0.6489 0.3150
vn -0.4783 -0.4335 0.7637
vn -0.1668 -0.1321 0.9771
vn 0.1674 0.1849 0.9684
vn 0.4823 0.4775 0.7344
vn 0.6958 0.6676 0.2651
vn 0.9284 0.2282 -0.2932
vn 0.6487 0.1449 -0.7471
vn 0.2278 0.0318 -0.9732
vn -0.2282 -0.0841 -0.9700
vn -0.6506 -0.1853 -0.7364
vn -0.9299 -0.2439 -0.2753
vn -0.9284 -0.2282 0.2932
vn -0.6487 -0.1449 0.7471
vn -0.2278 -0.0318 0.9732
vn 0.2282 0.0841 0.9700
vn 0.6506 0.1853 0.7364
vn 0.9299 0.2439 0.2753
vt 0.460894 0.072627
vt 0.141858 0.723202
vt 0.460894 0.072627
vt 0.460894 0.072627
vt 0.153530 0.741789
vt 0.460894 0.072627
vt 0.460894 0.072627
vt 0.141858 0.723202
vt 0.460894 0.072627
vt 0.460894 0.072627
vt 0.153530 0.741789
vt 0.460894 0.072627
vt 0.460894 0.072627
vt 0.460894 0.072627
vt 0.460894 0.072627
vt 0.460894 0.072627
vt 0.460894 0.072627
vt 0.460894 0.072627
vt 0.460894 0.072627
vt 0.460894 0.072627
vt 0.155475 0.734354
vt 0.460894 0.072627
vt 0.925832 0.061475
vt 0.155475 0.734354
vt 0.460894 0.072627
vt 0.925832 0.061475
vt 0.155475 0.734354
vt 0.925832 0.061475
vt 0.155475 0.734354
vt 0.925832 0.061475
vt 0.460894 0.072627
vt 0.460894 0.072627
vt 0.460894 0.072627
vt 0.460894 0.072627
vt 0.460894 0.072627
vt 0.925832 0.061475
vt 0.460894 0.072627
vt 0.925832 0.061475
vt 0.460894 0.072627
vt 0.925832 0.061475
vt 0.460894 0.072627
vt 0.925832 0.061475
vt 0.460894 0.072627
vt 0.460894 0.072627
vt 0.460894 0.072627
vt 0.460894 0.072627
vt 0.141858 0.723202
vt 0.460894 0.072627
vt 0.460894 0.072627
vt 0.460894 0.072627
vt 0.141858 0.723202
vt 0.460894 0.072627
vt 0.153530 0.741789
vt 0.460894 0.072627
vt 0.153530 0.741789
vt 0.460894 0.072627
vt 0.460894 0.072627
vt 0.460894 0.072627
vt 0.460894 0.072627
vt 0.460894 0.072627
vt 0.460894 0.072627
vt 0.460894 0.072627
vt 0.460894 0.072627
vt 0.460894 0.072627
vt 0.460894 0.072627
vt 0.460894 0.072627
vt 0.460894 0.072627
vt 0.460894 0.072627
vt 0.460894 0.072627
vt 0.925832 0.061475
vt 0.460894 0.072627
vt 0.925832 0.061475
vt 0.925832 0.061475
vt 0.925832 0.061475
vt 0.612360 0.084718
vt 0.612360 0.084718
vt 0.612360 0.084718
vt 0.612360 0.084718
vt 0.612360 0.084718
vt 0.612360 0.084718
vt 0.612360 0.084718
vt 0.612360 0.084718
vt 0.612360 0.084718
vt 0.612360 0.084718
vt 0.612360 0.084718
vt 0.612360 0.084718
vt 0.612360 0.084718
vt 0.612360 0.084718
vt 0.612360 0.084718
vt 0.612360 0.084718
vt 0.612360 0.084718
vt 0.612360 0.084718
vt 0.612360 0.084718
vt 0.612360 0.084718
vt 0.612360 0.084718
vt 0.612360 0.084718
vt 0.612360 0.084718
vt 0.612360 0.084718
vt 0.612360 0.084718
vt 0.612360 0.084718
vt 0.612360 0.084718
vt 0.612360 0.084718
vt 0.612360 0.084718
vt 0.612360 0.084718
vt 0.612360 0.084718
vt 0.612360 0.084718
vt 0.612360 0.084718
vt 0.612360 0.084718
vt 0.612360 0.084718
vt 0.612360 0.084718
vt 0.612360 0.084718
vt 0.612360 0.084718
vt 0.612360 0.084718
vt 0.612360 0.084718
vt 0.612360 0.084718
vt 0.612360 0.084718
vt 0.612360 0.084718
vt 0.612360 0.084718
vt 0.612360 0.084718
vt 0.612360 0.084718
vt 0.612360 0.084718
vt 0.612360 0.084718
vt 0.612360 0.084718
vt 0.612360 0.084718
vt 0.612360 0.084718
vt 0.612360 0.084718
vt 0.612360 0.084718
vt 0.612360 0.084718
vt 0.612360 0.084718
vt 0.612360 0.084718
vt 0.612360 0.084718
vt 0.612360 0.084718
vt 0.612360 0.084718
vt 0.612360 0.084718
vt 0.612360 0.084718
vt 0.612360 0.084718
vt 0.612360 0.084718
vt 0.612360 0.084718
vt 0.612360 0.084718
vt 0.612360 0.084718
vt 0.612360 0.084718
vt 0.612360 0.084718
vt 0.612360 0.084718
vt 0.612360 0.084718
vt 0.612360 0.084718
vt 0.612360 0.084718
vt 0.612360 0.084718
vt 0.612360 0.084718
vt 0.612360 0.084718
vt 0.612360 0.084718
vt 0.612360 0.084718
vt 0.612360 0.084718
vt 0.612360 0.084718
vt 0.612360 0.084718
vt 0.612360 0.084718
vt 0.612360 0.084718
vt 0.612360 0.084718
vt 0.612360 0.084718
vt 0.612360 0.084718
vt 0.612360 0.084718
vt 0.612360 0.084718
vt 0.612360 0.084718
vt 0.612360 0.084718
vt 0.612360 0.084718
vt 0.612360 0.084718
vt 0.612360 0.084718
s 0
usemtl Material.001
f 47/65/1 48/66/1 29/43/1 34/49/1
f 37/53/2 4/5/2 8/11/2 38/55/2
f 35/50/3 32/46/3 49/67/3 50/68/3
f 36/51/4 6/8/4 2/2/4 33/47/4
f 30/44/5 31/45/5 5/7/5 1/1/5
f 29/43/6 48/66/6 9/13/6 10/14/6
f 11/15/7 10/14/7 14/18/7 15/19/7
f 48/66/8 49/67/8 12/16/8 9/13/8
f 32/46/9 29/43/9 10/14/9 11/15/9
f 49/67/10 32/46/10 11/15/10 12/16/10
f 16/20/11 15/19/11 23/33/11 24/34/11
f 12/16/12 11/15/12 15/19/12 16/20/12
f 10/14/13 9/13/13 13/17/13 14/18/13
f 9/13/14 12/16/14 16/20/14 13/17/14
f 19/27/15 18/24/15 17/21/15 20/29/15
f 14/18/16 13/17/16 21/31/16 22/32/16
f 13/17/17 16/20/17 24/34/17 21/31/17
f 15/19/18 14/18/18 22/32/18 23/33/18
f 25/35/19 26/37/19 22/32/19 21/31/19
f 26/37/20 27/39/20 23/33/20 22/32/20
f 27/39/21 28/41/21 24/34/21 23/33/21
f 28/41/22 25/35/22 21/31/22 24/34/22
f 51/70/23 52/72/23 26/38/23 25/36/23
f 52/72/24 53/73/24 27/40/24 26/38/24
f 53/73/25 54/74/25 28/42/25 27/40/25
f 54/74/26 51/70/26 25/36/26 28/42/26
f 45/63/2 3/4/2 30/44/2 34/49/2
f 3/4/2 7/10/2 31/45/2 30/44/2
f 44/62/2 43/61/2 29/43/2 32/46/2
f 46/64/2 44/62/2 32/46/2 35/50/2
f 7/10/2 46/64/2 35/50/2 31/45/2
f 43/61/2 45/63/2 34/49/2 29/43/2
f 5/7/4 50/68/4 47/65/4 1/1/4
f 31/45/3 35/50/3 50/68/3 5/7/3
f 3/4/1 45/63/1 39/57/1 40/58/1
f 1/1/1 47/65/1 34/49/1 30/44/1
f 40/58/2 39/57/2 42/60/2 41/59/2
f 45/63/15 46/64/15 42/60/15 39/57/15
f 46/64/3 7/10/3 41/59/3 42/60/3
f 7/10/5 3/4/5 40/58/5 41/59/5
f 8/12/27 4/6/27 43/61/27 44/62/27
f 4/6/28 37/54/28 45/63/28 43/61/28
f 38/56/29 8/12/29 44/62/29 46/64/29
f 37/54/30 38/56/30 46/64/30 45/63/30
f 33/48/4 2/3/4 48/66/4 47/65/4
f 2/3/4 6/9/4 49/67/4 48/66/4
f 6/9/4 36/52/4 50/68/4 49/67/4
f 36/52/4 33/48/4 47/65/4 50/68/4
f 17/22/31 18/25/31 52/71/31 51/69/31
f 18/26/32 19/28/32 53/73/32 52/72/32
f 19/28/33 20/30/33 54/74/33 53/73/33
f 20/30/34 17/23/34 51/70/34 54/74/34
f 55/75/1 56/76/1 58/78/1 57/77/1
f 57/77/2 58/78/2 62/82/2 61/81/2
f 61/81/3 62/82/3 60/80/3 59/79/3
f 59/79/4 60/80/4 56/76/4 55/75/4
f 57/77/5 61/81/5 59/79/5 55/75/5
f 62/82/15 58/78/15 56/76/15 60/80/15
f 75/95/35 87/107/35 88/108/35 76/96/35
f 76/96/36 88/108/36 89/109/36 77/97/36
f 77/97/37 89/109/37 90/110/37 78/98/37
f 78/98/38 90/110/38 91/111/38 79/99/38
f 79/99/39 91/111/39 92/112/39 80/100/39
f 80/100/40 92/112/40 93/113/40 81/101/40
f 81/101/41 93/113/41 94/114/41 82/102/41
f 82/102/42 94/114/42 95/115/42 83/103/42
f 83/103/43 95/115/43 96/116/43 84/104/43
f 84/104/44 96/116/44 97/117/44 85/105/44
f 85/105/45 97/117/45 98/118/45 86/106/45
f 86/106/46 98/118/46 87/107/46 75/95/46
f 87/107/47 99/119/47 100/120/47 88/108/47
f 88/108/48 100/120/48 101/121/48 89/109/48
f 89/109/49 101/121/49 102/122/49 90/110/49
f 90/110/50 102/122/50 103/123/50 91/111/50
f 91/111/51 103/123/51 104/124/51 92/112/51
f 92/112/52 104/124/52 105/125/52 93/113/52
f 93/113/53 105/125/53 106/126/53 94/114/53
f 94/114/54 106/126/54 107/127/54 95/115/54
f 95/115/55 107/127/55 108/128/55 96/116/55
f 96/116/56 108/128/56 109/129/56 97/117/56
f 97/117/57 109/129/57 110/130/57 98/118/57
f 98/118/58 110/130/58 99/119/58 87/107/58
f 99/119/59 111/131/59 112/132/59 100/120/59
f 100/120/60 112/132/60 113/133/60 101/121/60
f 101/121/61 113/133/61 114/134/61 102/122/61
f 102/122/62 114/134/62 115/135/62 103/123/62
f 103/123/63 115/135/63 116/136/63 104/124/63
f 104/124/64 116/136/64 117/137/64 105/125/64
f 105/125/65 117/137/65 118/138/65 106/126/65
f 106/126/66 118/138/66 119/139/66 107/127/66
f 107/127/67 119/139/67 120/140/67 108/128/67
f 108/128/68 120/140/68 121/141/68 109/129/68
f 109/129/69 121/141/69 122/142/69 110/130/69
f 110/130/70 122/142/70 111/131/70 99/119/70
f 111/131/71 123/143/71 124/144/71 112/132/71
f 112/132/72 124/144/72 125/145/72 113/133/72
f 113/133/73 125/145/73 126/146/73 114/134/73
f 114/134/74 126/146/74 127/147/74 115/135/74
f 115/135/75 127/147/75 128/148/75 116/136/75
f 116/136/76 128/148/76 129/149/76 117/137/76
f 117/137/77 129/149/77 130/150/77 118/138/77
f 118/138/78 130/150/78 131/151/78 119/139/78
f 119/139/79 131/151/79 132/152/79 120/140/79
f 120/140/80 132/152/80 133/153/80 121/141/80
f 121/141/81 133/153/81 134/154/81 122/142/81
f 122/142/82 134/154/82 123/143/82 111/131/82
f 123/143/83 135/155/83 136/156/83 124/144/83
f 124/144/84 136/156/84 137/157/84 125/145/84
f 125/145/85 137/157/85 138/158/85 126/146/85
f 126/146/86 138/158/86 139/159/86 127/147/86
f 127/147/87 139/159/87 140/160/87 128/148/87
f 128/148/88 140/160/88 141/161/88 129/149/88
f 129/149/89 141/161/89 142/162/89 130/150/89
f 130/150/90 142/162/90 143/163/90 131/151/90
f 131/151/91 143/163/91 144/164/91 132/152/91
f 132/152/92 144/164/92 145/165/92 133/153/92
f 133/153/93 145/165/93 146/166/93 134/154/93
f 134/154/94 146/166/94 135/155/94 123/143/94
f 135/155/95 63/83/95 64/84/95 136/156/95
f 136/156/96 64/84/96 65/85/96 137/157/96
f 137/157/97 65/85/97 66/86/97 138/158/97
f 138/158/98 66/86/98 67/87/98 139/159/98
f 139/159/99 67/87/99 68/88/99 140/160/99
f 140/160/100 68/88/100 69/89/100 141/161/100
f 141/161/101 69/89/101 70/90/101 142/162/101
f 142/162/102 70/90/102 71/91/102 143/163/102
f 143/163/103 71/91/103 72/92/103 144/164/103
f 144/164/104 72/92/104 73/93/104 145/165/104
f 145/165/105 73/93/105 74/94/105 146/166/105
f 146/166/106 74/94/106 63/83/106 135/155/106
